<svg id="Layer_2" viewBox="0 0 595.3 595.3" xmlns="http://www.w3.org/2000/svg"><style>.st1{fill:#ffefcb}.st2{fill:#612a14}</style><g id="XMLID_1704_"><path d="M436.4 285.1c5.4-9.2 55-96.6 27.5-156.2 0 0-83 9.5-113.5 66.5 0 0-.7 1.4-1.7 3.7-15.4-7.5-32.4-11.9-51.1-11.9-18.4 0-35.4 4.2-50.7 11.5-1.2-2.1-2-3.4-2-3.4-30.5-57-113.5-66.5-113.5-66.5-27.4 59.6 23.4 144.3 28.8 153.5 0 0-12.3 47.1-16.3 65.2-20.7 91.9 68.8 113.7 153.8 113.7 84.9 0 174.5-35.2 153.8-113.7-4.7-17.6-16.8-59.8-15.1-62.4z" id="XMLID_1733_" fill="#f89e1e"/><path class="st1" d="M171.3 257.3c-15.1-26.2-27.5-76.7-22.3-99.3 17.5 4.7 50.3 13.8 75.6 51-17.9 11.7-39.7 31.1-53.3 48.3z" id="XMLID_1730_"/><path class="st1" d="M424 257.3c15.1-26.2 27.5-76.7 22.3-99.3-17.5 4.7-50.3 13.8-75.6 51 17.9 11.7 39.7 31.1 53.3 48.3z" id="XMLID_1727_"/><g id="XMLID_1724_"><path class="st2" d="M158.9 292.1c-2.4 0-4.7-1.2-6-3.5-5.9-10-56.7-99.9-27.8-162.7 1.3-2.7 4.1-4.4 7.2-4 3.5.4 87 10.6 118.9 70.2.2.3.3.6.4.9 0 .1.5 1.3 1.1 3.2 1.2 3.7-.9 7.6-4.6 8.8-3.7 1.2-7.6-.9-8.8-4.6-.3-1-.5-1.7-.7-2.1-24.3-44.8-84.7-58.4-102.7-61.6-21.2 56.1 23.9 135.8 29.2 144.9 2 3.3.8 7.6-2.5 9.6-1.3.6-2.5.9-3.7.9z" id="XMLID_1545_"/></g><g id="XMLID_1721_"><path class="st2" d="M297.6 473.3c-34.6 0-118.8-5-152.6-51.8-15-20.7-17.6-46.3-7.8-76.2 2.5-7.6 3.8-15.8 5.2-24.5 2-12.7 4.1-25.9 10.2-38.7.2-.4 5.5-11.7 13.2-24 2.1-3.3 6.4-4.2 9.7-2.2 3.3 2.1 4.2 6.4 2.2 9.7-7.2 11.5-12.3 22.3-12.4 22.4-5.2 11-7.1 23.2-9 34.9-1.4 8.9-2.9 18.1-5.7 26.7-8.3 25.3-6.4 46.7 5.8 63.6 20.8 28.8 73.7 46 141.3 46 62.8 0 117.7-19.9 139.9-50.6 12.1-16.8 14.5-36.6 7.2-58.9-3-9.2-5.2-19-7.2-28.5-3.9-17.8-7.8-36.2-17.9-52.1-2.1-3.3-1.1-7.6 2.2-9.7 3.3-2.1 7.6-1.1 9.7 2.2 11.4 18.1 15.7 37.7 19.8 56.6 2.1 9.6 4 18.6 6.8 27.1 8.9 26.8 5.8 50.9-9.1 71.5-13.1 18.1-35.4 32.9-64.5 42.8-25.9 8.9-56.7 13.7-87 13.7z" id="XMLID_1544_"/></g><g id="XMLID_1718_"><path class="st2" d="M436.4 292.1c-1.2 0-2.4-.3-3.5-1-3.3-2-4.5-6.2-2.5-9.6 5.4-9.1 50.5-88.8 29.2-144.9-18.1 3.2-78.8 16.9-103 62.1 0 0 0 .1-.1.1l-1.5 2.6c-1.9 3.4-6.2 4.6-9.5 2.7-3.4-1.9-4.6-6.2-2.7-9.5l1.5-2.6c31.9-59.5 115.3-69.7 118.8-70.1 3-.3 5.9 1.3 7.2 4 28.9 62.7-21.9 152.6-27.8 162.7-1.4 2.3-3.7 3.5-6.1 3.5z" id="XMLID_1542_"/></g><path class="st1" d="M345.7 332.1c-17.7-7.4-29.2-24.6-29.8-43.8l-.8-26c-.3-9.7-8.1-17.4-17.4-17.4-9.3 0-17.1 7.7-17.4 17.4l-.8 26c-.6 19.1-12.1 36.4-29.8 43.8-22.6 9.4-47.4 25.2-47.4 43.2 0 28.9 48.2 76.9 95.4 76.9s95.4-48 95.4-76.9c0-18-24.9-33.8-47.4-43.2z" id="XMLID_1717_"/><g id="XMLID_1716_"><path class="st2" d="M297.2 406.8c-2.8 0-5-2.2-5-5v-27.1c0-2.8 2.2-5 5-5s5 2.2 5 5v27.1c0 2.8-2.3 5-5 5z" id="XMLID_2104_"/></g><path d="M329.2 349.4c0 11.2-14.1 25.2-31.6 25.2s-31.6-14-31.6-25.2 14.1-15.3 31.6-15.3 31.6 4.1 31.6 15.3z" id="XMLID_1715_" fill="#843e2a"/><g id="XMLID_1714_"><path class="st2" d="M297.6 379.7c-20.3 0-36.6-16.5-36.6-30.2 0-7.6 4.8-20.3 36.6-20.3s36.6 12.7 36.6 20.3c0 13.6-16.3 30.2-36.6 30.2zm0-40.6c-6.2 0-26.6.7-26.6 10.3 0 8 11.4 20.2 26.6 20.2s26.6-12.3 26.6-20.2c0-9.6-20.3-10.3-26.6-10.3z" id="XMLID_2101_"/></g><g id="XMLID_1711_"><g id="XMLID_1713_"><path class="st2" d="M278.3 412.6c-.7 0-1.3 0-2-.1-14.4-1-24-13-24.4-13.5-1.7-2.2-1.4-5.3.8-7 2.2-1.7 5.3-1.4 7 .8.1.2 7.5 9.1 17.4 9.7 5.7.4 11.3-2 16.8-7.2 2-1.9 5.2-1.8 7.1.2 1.9 2 1.8 5.2-.2 7.1-7.2 6.7-14.7 10-22.5 10z" id="XMLID_2100_"/></g><g id="XMLID_1712_"><path class="st2" d="M317 412.6c-7.8 0-15.4-3.3-22.4-9.9-2-1.9-2.1-5.1-.2-7.1 1.9-2 5.1-2.1 7.1-.2 5.5 5.2 11.2 7.6 16.9 7.1 9.9-.7 17.3-9.6 17.4-9.7 1.7-2.2 4.9-2.5 7-.8 2.2 1.7 2.5 4.9.8 7-.4.5-10.1 12.4-24.4 13.5-.8.1-1.5.1-2.2.1z" id="XMLID_2099_"/></g></g><g id="XMLID_1708_"><path class="st2" d="M268.6 315.5c4.3-2.4-11.7-23.7-38.1-25.6-26.4-1.9-34.9 20.8-37.1 29.2 0 .2-.1.3-.1.5-1.7 7.8 4.8 6.1 11.9.7 0 0 .3-.3.8-.7 2.8-2.5 12.9-10.7 26.7-11.8 16.1-1.4 31.6 10.1 35.9 7.7z" id="XMLID_1710_"/><path class="st2" d="M390.2 320.3c7.1 5.4 13.6 7 11.9-.7 0-.2-.1-.3-.1-.5-2.1-8.4-10.7-31-37.1-29.2s-42.4 23.2-38.1 25.6c4.3 2.4 19.7-9.1 36-7.7 13.7 1.1 23.9 9.3 26.7 11.8l.7.7z" id="XMLID_1709_"/></g><g id="XMLID_1705_"><path class="st2" d="M368.1 215c-1.2 0-2.5-.3-3.6-1-21.4-13.1-43.8-19.7-66.8-19.7-22.9 0-45.3 6.6-66.7 19.6-3.3 2-7.6 1-9.6-2.3s-1-7.6 2.3-9.6c23.6-14.4 48.4-21.6 74-21.6s50.5 7.3 74.1 21.7c3.3 2 4.3 6.3 2.3 9.6-1.3 2.1-3.6 3.3-6 3.3z" id="XMLID_1541_"/></g></g></svg>